<?xml version="1.0" standalone="no"?><!DOCTYPE svg PUBLIC "-//W3C//DTD SVG 1.1//EN" "http://www.w3.org/Graphics/SVG/1.1/DTD/svg11.dtd"><svg t="1758884663211" class="icon" viewBox="0 0 1024 1024" version="1.1" xmlns="http://www.w3.org/2000/svg" p-id="3767" width="16" height="16" xmlns:xlink="http://www.w3.org/1999/xlink"><path d="M928.4 479.6H189.6l313.6-287.5c14.6-14.6 14.6-38.3 0-53-14.6-14.6-38.4-14.6-53 0L74 483.9c-7.8 7.8-11.1 18.2-10.6 28.4-0.5 10.2 2.8 20.6 10.6 28.4L450.2 885c14.6 14.6 38.4 14.6 53 0 14.6-14.6 14.6-38.3 0-53l-315-288.3 740.2-0.1c17.8 0 32.3-13.8 32.3-31.7s-14.5-32.3-32.3-32.3z" fill="#666666" p-id="3768"></path></svg>